<mxfile host="65bd71144e">
    <diagram id="CVOBY8c-yUpWelupGgMg" name="第 1 页">
        <mxGraphModel dx="2213" dy="827" grid="1" gridSize="10" guides="1" tooltips="1" connect="1" arrows="1" fold="1" page="1" pageScale="1" pageWidth="827" pageHeight="1169" math="0" shadow="0">
            <root>
                <mxCell id="0"/>
                <mxCell id="1" parent="0"/>
                <mxCell id="6" value="" style="edgeStyle=none;curved=1;html=1;strokeColor=default;" edge="1" parent="1" target="5">
                    <mxGeometry relative="1" as="geometry">
                        <mxPoint x="290" y="520" as="sourcePoint"/>
                    </mxGeometry>
                </mxCell>
                <mxCell id="8" value="" style="edgeStyle=none;curved=1;html=1;strokeColor=default;fontFamily=Helvetica;fontSize=12;fontColor=default;" edge="1" parent="1" source="5" target="7">
                    <mxGeometry relative="1" as="geometry"/>
                </mxCell>
                <mxCell id="5" value="项目：基础框架" style="rounded=1;whiteSpace=wrap;html=1;sketch=1;curveFitting=1;jiggle=2;glass=0;shadow=1;gradientColor=none;" vertex="1" parent="1">
                    <mxGeometry x="230" y="600" width="120" height="60" as="geometry"/>
                </mxCell>
                <mxCell id="13" style="edgeStyle=none;curved=1;html=1;exitX=0.5;exitY=1;exitDx=0;exitDy=0;entryX=1;entryY=0.5;entryDx=0;entryDy=0;strokeColor=default;fontFamily=Helvetica;fontSize=12;fontColor=default;" edge="1" parent="1" source="7" target="11">
                    <mxGeometry relative="1" as="geometry"/>
                </mxCell>
                <mxCell id="14" style="edgeStyle=none;curved=1;html=1;entryX=0;entryY=0.5;entryDx=0;entryDy=0;strokeColor=default;fontFamily=Helvetica;fontSize=12;fontColor=default;exitX=0.5;exitY=1;exitDx=0;exitDy=0;" edge="1" parent="1" source="7" target="9">
                    <mxGeometry relative="1" as="geometry"/>
                </mxCell>
                <mxCell id="34" value="" style="edgeStyle=none;html=1;strokeColor=default;fontFamily=Helvetica;fontSize=20;fontColor=default;elbow=vertical;" edge="1" parent="1" source="7" target="33">
                    <mxGeometry relative="1" as="geometry"/>
                </mxCell>
                <mxCell id="7" value="master分支" style="rounded=1;whiteSpace=wrap;html=1;sketch=1;curveFitting=1;jiggle=2;glass=0;shadow=1;" vertex="1" parent="1">
                    <mxGeometry x="230" y="720" width="130" height="60" as="geometry"/>
                </mxCell>
                <mxCell id="9" value="主题分支" style="rounded=1;whiteSpace=wrap;html=1;sketch=1;curveFitting=1;jiggle=2;glass=0;shadow=1;" vertex="1" parent="1">
                    <mxGeometry x="490" y="860" width="120" height="60" as="geometry"/>
                </mxCell>
                <mxCell id="11" value="主题分支" style="rounded=1;whiteSpace=wrap;html=1;sketch=1;curveFitting=1;jiggle=2;glass=0;shadow=1;" vertex="1" parent="1">
                    <mxGeometry x="20" y="860" width="120" height="60" as="geometry"/>
                </mxCell>
                <mxCell id="15" value="包含：mian、system、&lt;br&gt;resource、common" style="ellipse;shape=cloud;whiteSpace=wrap;html=1;rounded=1;sketch=1;curveFitting=1;jiggle=2;glass=0;shadow=1;gradientColor=none;" vertex="1" parent="1">
                    <mxGeometry x="500" y="650" width="220" height="140" as="geometry"/>
                </mxCell>
                <mxCell id="17" value="" style="endArrow=classic;startArrow=classic;html=1;strokeColor=default;fontFamily=Helvetica;fontSize=12;fontColor=default;elbow=vertical;entryX=0.083;entryY=0.525;entryDx=0;entryDy=0;entryPerimeter=0;exitX=1;exitY=0.5;exitDx=0;exitDy=0;" edge="1" parent="1" source="7" target="15">
                    <mxGeometry width="50" height="50" relative="1" as="geometry">
                        <mxPoint x="370" y="670" as="sourcePoint"/>
                        <mxPoint x="420" y="620" as="targetPoint"/>
                    </mxGeometry>
                </mxCell>
                <mxCell id="21" value="主题：数字警卫风格" style="ellipse;shape=cloud;whiteSpace=wrap;html=1;rounded=1;sketch=1;curveFitting=1;jiggle=2;glass=0;shadow=1;" vertex="1" parent="1">
                    <mxGeometry x="640" y="820" width="170" height="120" as="geometry"/>
                </mxCell>
                <mxCell id="24" value="主题：情指行风格" style="ellipse;shape=cloud;whiteSpace=wrap;html=1;rounded=1;sketch=1;curveFitting=1;jiggle=2;glass=0;shadow=1;strokeColor=default;fontFamily=Helvetica;fontSize=12;fontColor=default;fillColor=default;" vertex="1" parent="1">
                    <mxGeometry x="-200" y="840" width="170" height="100" as="geometry"/>
                </mxCell>
                <mxCell id="38" style="edgeStyle=orthogonalEdgeStyle;html=1;exitX=0.1;exitY=0.5;exitDx=0;exitDy=0;exitPerimeter=0;strokeColor=default;fontFamily=Helvetica;fontSize=20;fontColor=default;elbow=vertical;curved=1;entryX=0.5;entryY=0;entryDx=0;entryDy=0;entryPerimeter=0;" edge="1" parent="1" source="26">
                    <mxGeometry relative="1" as="geometry">
                        <mxPoint x="40" y="1090" as="targetPoint"/>
                    </mxGeometry>
                </mxCell>
                <mxCell id="43" style="edgeStyle=orthogonalEdgeStyle;curved=1;html=1;strokeColor=default;fontFamily=Helvetica;fontSize=12;fontColor=default;elbow=vertical;entryX=0.5;entryY=0;entryDx=0;entryDy=0;" edge="1" parent="1" source="26">
                    <mxGeometry relative="1" as="geometry">
                        <mxPoint x="570" y="1090" as="targetPoint"/>
                    </mxGeometry>
                </mxCell>
                <mxCell id="59" style="edgeStyle=orthogonalEdgeStyle;curved=1;html=1;strokeColor=default;fontFamily=Helvetica;fontSize=12;fontColor=default;elbow=vertical;" edge="1" parent="1" source="26">
                    <mxGeometry relative="1" as="geometry">
                        <mxPoint x="308" y="1090" as="targetPoint"/>
                    </mxGeometry>
                </mxCell>
                <mxCell id="26" value="" style="shape=curlyBracket;whiteSpace=wrap;html=1;rounded=1;flipH=1;labelPosition=right;verticalLabelPosition=middle;align=left;verticalAlign=middle;shadow=1;sketch=1;jiggle=2;curveFitting=1;strokeColor=default;fontFamily=Helvetica;fontSize=12;fontColor=default;fillColor=default;rotation=90;" vertex="1" parent="1">
                    <mxGeometry x="270" y="480" width="76.25" height="993.75" as="geometry"/>
                </mxCell>
                <mxCell id="27" value="&lt;font style=&quot;font-size: 20px;&quot;&gt;fork&lt;/font&gt;" style="text;html=1;align=center;verticalAlign=middle;resizable=0;points=[];autosize=1;strokeColor=none;fillColor=none;fontSize=12;fontFamily=Helvetica;fontColor=default;" vertex="1" parent="1">
                    <mxGeometry x="320" y="990" width="60" height="40" as="geometry"/>
                </mxCell>
                <mxCell id="29" value="" style="endArrow=classic;startArrow=classic;html=1;strokeColor=default;fontFamily=Helvetica;fontSize=20;fontColor=default;elbow=vertical;entryX=0.16;entryY=0.55;entryDx=0;entryDy=0;entryPerimeter=0;" edge="1" parent="1" source="9" target="21">
                    <mxGeometry width="50" height="50" relative="1" as="geometry">
                        <mxPoint x="540" y="820" as="sourcePoint"/>
                        <mxPoint x="610.7106781186548" y="770" as="targetPoint"/>
                    </mxGeometry>
                </mxCell>
                <mxCell id="31" value="" style="endArrow=classic;startArrow=classic;html=1;strokeColor=default;fontFamily=Helvetica;fontSize=20;fontColor=default;elbow=vertical;entryX=0;entryY=0.5;entryDx=0;entryDy=0;exitX=0.929;exitY=0.52;exitDx=0;exitDy=0;exitPerimeter=0;" edge="1" parent="1" source="24" target="11">
                    <mxGeometry width="50" height="50" relative="1" as="geometry">
                        <mxPoint x="-50" y="820" as="sourcePoint"/>
                        <mxPoint x="20.710678118654755" y="770" as="targetPoint"/>
                    </mxGeometry>
                </mxCell>
                <mxCell id="33" value="其他主题分支..." style="rounded=1;whiteSpace=wrap;html=1;sketch=1;curveFitting=1;jiggle=2;glass=0;shadow=1;" vertex="1" parent="1">
                    <mxGeometry x="230" y="860" width="130" height="60" as="geometry"/>
                </mxCell>
                <mxCell id="40" style="edgeStyle=orthogonalEdgeStyle;curved=1;html=1;entryX=0.55;entryY=0.95;entryDx=0;entryDy=0;entryPerimeter=0;strokeColor=default;fontFamily=Helvetica;fontSize=12;fontColor=default;elbow=vertical;dashed=1;exitX=0;exitY=0.5;exitDx=0;exitDy=0;" edge="1" parent="1" source="56" target="24">
                    <mxGeometry relative="1" as="geometry">
                        <mxPoint x="-20" y="1120" as="sourcePoint"/>
                    </mxGeometry>
                </mxCell>
                <mxCell id="42" value="合并分支：情指行主题" style="edgeLabel;html=1;align=center;verticalAlign=middle;resizable=0;points=[];fontSize=12;fontFamily=Helvetica;fontColor=default;" vertex="1" connectable="0" parent="40">
                    <mxGeometry x="0.186" y="-6" relative="1" as="geometry">
                        <mxPoint as="offset"/>
                    </mxGeometry>
                </mxCell>
                <mxCell id="46" style="edgeStyle=orthogonalEdgeStyle;curved=1;html=1;strokeColor=default;fontFamily=Helvetica;fontSize=12;fontColor=default;elbow=vertical;dashed=1;exitX=1;exitY=0.5;exitDx=0;exitDy=0;" edge="1" parent="1" source="58" target="21">
                    <mxGeometry relative="1" as="geometry">
                        <mxPoint x="630" y="1120" as="sourcePoint"/>
                    </mxGeometry>
                </mxCell>
                <mxCell id="47" value="合并分支：数字警卫主题" style="edgeLabel;html=1;align=center;verticalAlign=middle;resizable=0;points=[];fontSize=12;fontFamily=Helvetica;fontColor=default;" vertex="1" connectable="0" parent="46">
                    <mxGeometry x="0.1547" y="5" relative="1" as="geometry">
                        <mxPoint as="offset"/>
                    </mxGeometry>
                </mxCell>
                <mxCell id="55" value="组群：ITP" style="ellipse;whiteSpace=wrap;html=1;rounded=1;shadow=1;sketch=1;jiggle=2;curveFitting=1;strokeColor=default;fontFamily=Helvetica;fontSize=12;fontColor=default;fillColor=default;" vertex="1" parent="1">
                    <mxGeometry x="230" y="450" width="120" height="80" as="geometry"/>
                </mxCell>
                <mxCell id="62" style="edgeStyle=orthogonalEdgeStyle;curved=1;html=1;exitX=0.5;exitY=1;exitDx=0;exitDy=0;entryX=0.5;entryY=0;entryDx=0;entryDy=0;strokeColor=default;fontFamily=Helvetica;fontSize=12;fontColor=default;elbow=vertical;" edge="1" parent="1" source="56" target="61">
                    <mxGeometry relative="1" as="geometry"/>
                </mxCell>
                <mxCell id="56" value="组群：情指行" style="ellipse;whiteSpace=wrap;html=1;rounded=1;shadow=1;sketch=1;jiggle=2;curveFitting=1;strokeColor=default;fontFamily=Helvetica;fontSize=12;fontColor=default;fillColor=default;" vertex="1" parent="1">
                    <mxGeometry x="-20" y="1089" width="120" height="80" as="geometry"/>
                </mxCell>
                <mxCell id="87" style="html=1;exitX=0.5;exitY=1;exitDx=0;exitDy=0;entryX=0.5;entryY=0;entryDx=0;entryDy=0;strokeColor=default;fontFamily=Helvetica;fontSize=12;fontColor=default;elbow=vertical;" edge="1" parent="1" source="58" target="86">
                    <mxGeometry relative="1" as="geometry"/>
                </mxCell>
                <mxCell id="58" value="组群：数字警卫" style="ellipse;whiteSpace=wrap;html=1;rounded=1;shadow=1;sketch=1;jiggle=2;curveFitting=1;strokeColor=default;fontFamily=Helvetica;fontSize=12;fontColor=default;fillColor=default;" vertex="1" parent="1">
                    <mxGeometry x="510" y="1089" width="120" height="80" as="geometry"/>
                </mxCell>
                <mxCell id="60" value="其他项目组群..." style="ellipse;whiteSpace=wrap;html=1;rounded=1;shadow=1;sketch=1;jiggle=2;curveFitting=1;strokeColor=default;fontFamily=Helvetica;fontSize=12;fontColor=default;fillColor=default;" vertex="1" parent="1">
                    <mxGeometry x="248" y="1089" width="120" height="80" as="geometry"/>
                </mxCell>
                <mxCell id="64" value="" style="html=1;strokeColor=default;fontFamily=Helvetica;fontSize=12;fontColor=default;elbow=vertical;" edge="1" parent="1" source="61">
                    <mxGeometry relative="1" as="geometry">
                        <mxPoint x="40" y="1333.75" as="targetPoint"/>
                    </mxGeometry>
                </mxCell>
                <mxCell id="61" value="项目：业务代码" style="whiteSpace=wrap;html=1;rounded=1;shadow=1;sketch=1;jiggle=2;curveFitting=1;strokeColor=default;fontFamily=Helvetica;fontSize=12;fontColor=default;fillColor=default;" vertex="1" parent="1">
                    <mxGeometry x="-20" y="1220" width="120" height="60" as="geometry"/>
                </mxCell>
                <mxCell id="72" value="扩展模块" style="swimlane;fontStyle=0;childLayout=stackLayout;horizontal=1;startSize=30;horizontalStack=0;resizeParent=1;resizeParentMax=0;resizeLast=0;collapsible=1;marginBottom=0;whiteSpace=wrap;html=1;rounded=1;shadow=1;sketch=1;jiggle=2;curveFitting=1;strokeColor=default;fontFamily=Helvetica;fontSize=12;fontColor=default;fillColor=default;" vertex="1" parent="1">
                    <mxGeometry x="-30" y="1330" width="140" height="120" as="geometry"/>
                </mxCell>
                <mxCell id="73" value="command" style="text;strokeColor=none;fillColor=none;align=left;verticalAlign=middle;spacingLeft=4;spacingRight=4;overflow=hidden;points=[[0,0.5],[1,0.5]];portConstraint=eastwest;rotatable=0;whiteSpace=wrap;html=1;rounded=1;shadow=1;sketch=1;jiggle=2;curveFitting=1;fontFamily=Helvetica;fontSize=12;fontColor=default;" vertex="1" parent="72">
                    <mxGeometry y="30" width="140" height="30" as="geometry"/>
                </mxCell>
                <mxCell id="74" value="situation" style="text;strokeColor=none;fillColor=none;align=left;verticalAlign=middle;spacingLeft=4;spacingRight=4;overflow=hidden;points=[[0,0.5],[1,0.5]];portConstraint=eastwest;rotatable=0;whiteSpace=wrap;html=1;rounded=1;shadow=1;sketch=1;jiggle=2;curveFitting=1;fontFamily=Helvetica;fontSize=12;fontColor=default;" vertex="1" parent="72">
                    <mxGeometry y="60" width="140" height="30" as="geometry"/>
                </mxCell>
                <mxCell id="75" value="......" style="text;strokeColor=none;fillColor=none;align=left;verticalAlign=middle;spacingLeft=4;spacingRight=4;overflow=hidden;points=[[0,0.5],[1,0.5]];portConstraint=eastwest;rotatable=0;whiteSpace=wrap;html=1;rounded=1;shadow=1;sketch=1;jiggle=2;curveFitting=1;fontFamily=Helvetica;fontSize=12;fontColor=default;" vertex="1" parent="72">
                    <mxGeometry y="90" width="140" height="30" as="geometry"/>
                </mxCell>
                <mxCell id="79" value="" style="html=1;strokeColor=default;fontFamily=Helvetica;fontSize=12;fontColor=default;elbow=vertical;" edge="1" parent="1">
                    <mxGeometry relative="1" as="geometry">
                        <mxPoint x="579.5" y="1270" as="sourcePoint"/>
                        <mxPoint x="579.5" y="1323.75" as="targetPoint"/>
                    </mxGeometry>
                </mxCell>
                <mxCell id="82" value="扩展模块" style="swimlane;fontStyle=0;childLayout=stackLayout;horizontal=1;startSize=30;horizontalStack=0;resizeParent=1;resizeParentMax=0;resizeLast=0;collapsible=1;marginBottom=0;whiteSpace=wrap;html=1;rounded=1;shadow=1;sketch=1;jiggle=2;curveFitting=1;strokeColor=default;fontFamily=Helvetica;fontSize=12;fontColor=default;fillColor=default;" vertex="1" parent="1">
                    <mxGeometry x="510" y="1330" width="140" height="90" as="geometry"/>
                </mxCell>
                <mxCell id="83" value="guard" style="text;strokeColor=none;fillColor=none;align=left;verticalAlign=middle;spacingLeft=4;spacingRight=4;overflow=hidden;points=[[0,0.5],[1,0.5]];portConstraint=eastwest;rotatable=0;whiteSpace=wrap;html=1;rounded=1;shadow=1;sketch=1;jiggle=2;curveFitting=1;fontFamily=Helvetica;fontSize=12;fontColor=default;" vertex="1" parent="82">
                    <mxGeometry y="30" width="140" height="30" as="geometry"/>
                </mxCell>
                <mxCell id="85" value="......" style="text;strokeColor=none;fillColor=none;align=left;verticalAlign=middle;spacingLeft=4;spacingRight=4;overflow=hidden;points=[[0,0.5],[1,0.5]];portConstraint=eastwest;rotatable=0;whiteSpace=wrap;html=1;rounded=1;shadow=1;sketch=1;jiggle=2;curveFitting=1;fontFamily=Helvetica;fontSize=12;fontColor=default;" vertex="1" parent="82">
                    <mxGeometry y="60" width="140" height="30" as="geometry"/>
                </mxCell>
                <mxCell id="86" value="项目：业务代码" style="whiteSpace=wrap;html=1;rounded=1;shadow=1;sketch=1;jiggle=2;curveFitting=1;strokeColor=default;fontFamily=Helvetica;fontSize=12;fontColor=default;fillColor=default;" vertex="1" parent="1">
                    <mxGeometry x="510" y="1220" width="120" height="60" as="geometry"/>
                </mxCell>
                <mxCell id="91" value="" style="endArrow=classic;startArrow=classic;html=1;strokeColor=default;fontFamily=Helvetica;fontSize=12;fontColor=default;entryX=1;entryY=0.5;entryDx=0;entryDy=0;edgeStyle=orthogonalEdgeStyle;curved=1;dashed=1;exitX=0;exitY=0.5;exitDx=0;exitDy=0;" edge="1" parent="1" source="7" target="61">
                    <mxGeometry width="50" height="50" relative="1" as="geometry">
                        <mxPoint x="159.28932188134524" y="680" as="sourcePoint"/>
                        <mxPoint x="159.28932188134524" y="630" as="targetPoint"/>
                    </mxGeometry>
                </mxCell>
                <mxCell id="92" value="继承模块" style="edgeLabel;html=1;align=center;verticalAlign=middle;resizable=0;points=[];fontSize=12;fontFamily=Helvetica;fontColor=default;" vertex="1" connectable="0" parent="91">
                    <mxGeometry x="0.72" y="-21" relative="1" as="geometry">
                        <mxPoint as="offset"/>
                    </mxGeometry>
                </mxCell>
                <mxCell id="94" value="" style="endArrow=classic;startArrow=classic;html=1;dashed=1;strokeColor=default;fontFamily=Helvetica;fontSize=12;fontColor=default;curved=1;entryX=0;entryY=0.5;entryDx=0;entryDy=0;edgeStyle=orthogonalEdgeStyle;exitX=1;exitY=0.5;exitDx=0;exitDy=0;" edge="1" parent="1" source="7" target="86">
                    <mxGeometry width="50" height="50" relative="1" as="geometry">
                        <mxPoint x="350" y="680" as="sourcePoint"/>
                        <mxPoint x="420.71067811865476" y="630" as="targetPoint"/>
                        <Array as="points">
                            <mxPoint x="420" y="750"/>
                            <mxPoint x="420" y="1242"/>
                            <mxPoint x="510" y="1242"/>
                        </Array>
                    </mxGeometry>
                </mxCell>
                <mxCell id="95" value="继承模块" style="edgeLabel;html=1;align=center;verticalAlign=middle;resizable=0;points=[];fontSize=12;fontFamily=Helvetica;fontColor=default;" vertex="1" connectable="0" parent="94">
                    <mxGeometry x="0.8466" y="26" relative="1" as="geometry">
                        <mxPoint x="-18" y="4" as="offset"/>
                    </mxGeometry>
                </mxCell>
            </root>
        </mxGraphModel>
    </diagram>
</mxfile>